<svg width="17" height="17" viewBox="0 0 17 17" fill="none" xmlns="http://www.w3.org/2000/svg">
<g clip-path="url(#clip0_325_642)">
<path d="M0.408691 6.57005L7.43754 0.821256C8.09138 0.328502 8.99042 0.328502 9.64427 0.821256L16.5914 6.57005" stroke="white" stroke-miterlimit="10" stroke-linecap="round"/>
<path d="M14.7115 7.9662V15.686C14.7115 16.1788 14.3029 16.5894 13.8125 16.5894H11.2788C10.7885 16.5894 10.3798 16.1788 10.3798 15.686V12.401C10.3798 11.9082 9.97115 11.4976 9.48076 11.4976H7.43749C6.94711 11.4976 6.53845 11.9082 6.53845 12.401V15.686C6.53845 16.1788 6.1298 16.5894 5.63941 16.5894H3.18749C2.69711 16.5894 2.28845 16.1788 2.28845 15.686V7.9662C2.28845 7.55557 2.45191 7.14494 2.77884 6.81644L7.68268 2.54591C8.17307 2.2174 8.74518 2.2174 9.23557 2.54591L14.1394 6.81644C14.5481 7.14494 14.7115 7.55557 14.7115 7.9662Z" stroke="white" stroke-miterlimit="10" stroke-linecap="round"/>
</g>
<defs>
<clipPath id="clip0_325_642">
<rect width="17" height="17" fill="white"/>
</clipPath>
</defs>
</svg>
