<svg width="18" height="16" viewBox="0 0 18 16" fill="none" xmlns="http://www.w3.org/2000/svg">
<path d="M9.03769 15.6314H13.8578C14.2343 15.6314 14.5356 15.3364 14.5356 14.9678V6.70969L17.3975 5.97236C17.5481 5.89863 17.6235 5.75117 17.6235 5.6037L16.9456 3.68665C16.5691 2.58066 15.7406 1.7696 14.6109 1.3272L11.6737 0.368678C11.5984 0.368678 11.4477 0.442411 11.4477 0.516143C11.3724 1.84333 10.2427 2.58066 9.03769 2.58066C7.83267 2.58066 6.70296 1.84333 6.62765 0.516143C6.62765 0.368678 6.47702 0.294945 6.4017 0.368678L3.38915 1.40094C2.25944 1.7696 1.35568 2.58066 1.05442 3.68665L0.3766 5.6037C0.301286 5.75117 0.451914 5.89863 0.602541 5.97236L3.46447 6.70969V14.9678C3.46447 15.3364 3.76572 15.6314 4.14229 15.6314H8.96237" stroke="#606060" stroke-miterlimit="10" stroke-linecap="round"/>
</svg>
