<svg width="16" height="18" viewBox="0 0 16 18" fill="none" xmlns="http://www.w3.org/2000/svg">
<g clip-path="url(#clip0_325_645)">
<path d="M8.00001 7.31506C9.97413 7.31506 11.5745 5.76952 11.5745 3.863C11.5745 1.95649 9.97413 0.41095 8.00001 0.41095C6.02588 0.41095 4.42554 1.95649 4.42554 3.863C4.42554 5.76952 6.02588 7.31506 8.00001 7.31506Z" stroke="#606060" stroke-miterlimit="10" stroke-linecap="round"/>
<path d="M14.5531 16.274C15.234 15.9452 15.6595 15.2055 15.5744 14.4657C14.9787 10.9315 11.8297 8.30136 7.99995 8.30136C4.17017 8.30136 1.02123 11.0137 0.425486 14.4657C0.340379 15.2055 0.680805 15.9452 1.44676 16.274C2.63825 16.8493 4.93612 17.589 7.99995 17.589C11.0638 17.589 13.3617 16.8493 14.5531 16.274Z" stroke="#606060" stroke-miterlimit="10" stroke-linecap="round"/>
</g>
<defs>
<clipPath id="clip0_325_645">
<rect width="16" height="18" fill="white"/>
</clipPath>
</defs>
</svg>
