<svg width="21" height="16" viewBox="0 0 21 16" fill="none" xmlns="http://www.w3.org/2000/svg">
<g clip-path="url(#clip0_325_652)">
<path d="M0.420044 0.396027H3.02404C3.52804 0.396027 4.03204 0.712858 4.20004 1.18811L7.14004 10.9307C7.30804 11.4059 7.81204 11.802 8.40004 11.7228L17.64 11.1683C18.144 11.1683 18.564 10.8515 18.732 10.3762L20.664 4.99009C20.916 4.27721 20.328 3.48514 19.488 3.48514H8.06404" stroke="#606060" stroke-miterlimit="10" stroke-linecap="round"/>
<path d="M9.32396 15.604C10.0198 15.604 10.584 15.072 10.584 14.4158C10.584 13.7597 10.0198 13.2277 9.32396 13.2277C8.62809 13.2277 8.06396 13.7597 8.06396 14.4158C8.06396 15.072 8.62809 15.604 9.32396 15.604Z" stroke="#606060" stroke-miterlimit="10" stroke-linecap="round"/>
<path d="M17.136 15.604C17.8319 15.604 18.396 15.072 18.396 14.4158C18.396 13.7597 17.8319 13.2277 17.136 13.2277C16.4401 13.2277 15.876 13.7597 15.876 14.4158C15.876 15.072 16.4401 15.604 17.136 15.604Z" stroke="#606060" stroke-miterlimit="10" stroke-linecap="round"/>
<path d="M19.32 7.12872H12.432" stroke="#606060" stroke-miterlimit="10" stroke-linecap="round"/>
</g>
<defs>
<clipPath id="clip0_325_652">
<rect width="21" height="16" fill="white"/>
</clipPath>
</defs>
</svg>
